<?xml version="1.0" encoding="utf-8"?>
<svg viewBox="67.6919 42.7037 626.949 488.815" width="626.949" height="488.815" xmlns="http://www.w3.org/2000/svg">
  <defs>
    <clipPath clipPathUnits="userSpaceOnUse" id="clipPath18">
      <path d="M 0,500 H 500 V 0 H 0 Z" id="path16"/>
    </clipPath>
    <clipPath clipPathUnits="userSpaceOnUse" id="clip-1">
      <path d="M 0,500 H 500 V 0 H 0 Z" id="path-1"/>
    </clipPath>
  </defs>
  <g id="g8" transform="matrix(1.3333330154418945, 0, 0, -1.3333330154418945, 18.321332931518555, 672.9891357421875)">
    <g id="g12" transform="matrix(1, 0, 0, 1, 12.027545, 49.713852)">
      <g id="g14" clip-path="url(#clipPath18)">
        <g id="g20" transform="translate(113.9906,146.5598)">
          <path d="M 0,0 C 0.02,0.282 -0.13,0.573 -0.467,0.683 -2.163,1.235 -3.86,1.787 -5.556,2.339 -6.388,2.61 -6.682,1.369 -5.91,1.056 c 0.949,-0.384 1.897,-0.768 2.846,-1.153 -6.199,-2.18 -12.299,-4.615 -18.3,-7.297 0.934,3.573 2.295,6.958 4.114,10.199 0.316,0.562 -0.333,1.284 -0.913,0.913 -4.167,-2.667 -8.334,-5.335 -12.502,-8.003 l -6.019,-3.853 c -2.03,-1.3 -4.409,-3.393 -6.9,-3.647 1.235,3.896 2.472,7.791 3.7,11.689 0.164,0.521 -0.502,1.098 -0.978,0.751 -4.517,-3.29 -9.047,-6.564 -13.521,-9.914 -0.589,-0.44 -0.034,-1.444 0.588,-1.007 4.037,2.839 8.031,5.737 12.028,8.631 -1.129,-3.55 -2.254,-7.101 -3.379,-10.652 -0.142,-0.448 0.234,-0.809 0.645,-0.847 2.253,-0.211 3.872,0.894 5.714,2.062 2.322,1.472 4.63,2.965 6.945,4.447 l 12.266,7.854 c -1.501,-3.062 -2.637,-6.249 -3.404,-9.606 -0.138,-0.603 0.454,-0.992 0.979,-0.753 6.636,3.013 13.399,5.706 20.282,8.094 -0.934,-1.301 -1.867,-2.602 -2.801,-3.903 -0.5,-0.696 0.652,-1.36 1.147,-0.671 1.158,1.613 2.316,3.227 3.475,4.84 C 0.294,-0.501 0.197,-0.205 0,0" style="fill-opacity: 1; fill-rule: nonzero; stroke: none; fill: rgb(255, 255, 255);" id="path22"/>
        </g>
        <g id="g24" transform="translate(280.5091,309.8511)">
          <path d="M 0,0 C 0.717,4.08 1.289,8.18 1.671,12.306 1.754,13.2 1.825,19.153 2.059,22.917 2.703,15.115 3.346,7.313 4.004,-0.488 4.055,-1.087 4.726,-1.229 5.075,-0.778 5.934,0.335 6.857,1.365 7.833,2.348 6.303,-1.469 4.774,-5.287 3.243,-9.104 c -3.24,3.318 -6.183,6.878 -8.82,10.682 2.249,-1.453 4.598,-2.783 7.048,-3.805 0.326,-0.136 0.512,0.378 0.233,0.552 -0.687,0.429 -1.373,0.852 -2.057,1.276 C -0.184,-0.354 -0.041,-0.234 0,0 M 4.041,-10.355 C 5.998,-5.426 7.959,-0.499 9.916,4.43 10.149,5.017 9.334,5.343 8.942,4.997 7.52,3.746 6.237,2.415 5.035,0.977 4.351,9.519 3.655,18.061 2.956,26.602 2.924,26.992 2.598,27.283 2.195,27.181 1.328,26.963 1.246,26.445 1.084,25.616 0.598,23.137 1.008,20.166 0.869,17.623 0.551,11.815 -0.137,6.043 -1.14,0.314 -1.154,0.232 -1.148,0.158 -1.134,0.087 -3.297,1.434 -5.431,2.799 -7.496,4.338 -7.994,4.709 -8.642,3.994 -8.33,3.504 c 3.268,-5.126 7.047,-9.838 11.357,-14.127 0.351,-0.349 0.851,-0.144 1.014,0.268" style="fill-opacity: 1; fill-rule: nonzero; stroke: none; fill: rgb(255, 255, 255);" id="path26"/>
        </g>
        <g id="g28" transform="translate(125.629,302.5403)">
          <path d="m 0,0 c 3.701,-5.505 7.87,-10.675 12.546,-15.385 2.38,-2.398 4.88,-4.675 7.491,-6.82 2.552,-2.096 5.45,-3.897 7.446,-6.557 -1.723,-0.15 -3.311,-0.623 -4.882,-1.451 -0.503,-0.265 -0.234,-0.955 0.262,-0.994 4.553,-0.359 8.999,-1.152 13.398,-2.371 0.38,-0.105 0.791,0.273 0.665,0.665 -1.233,3.856 -2.775,7.57 -4.687,11.141 -0.245,0.457 -0.923,0.237 -0.939,-0.248 -0.069,-2.087 -0.11,-4.175 -0.157,-6.263 -0.01,-0.421 0.611,-0.408 0.646,0 0.125,1.473 0.25,2.945 0.369,4.418 1.318,-2.729 2.46,-5.521 3.413,-8.402 -3.483,0.922 -7.01,1.564 -10.588,1.933 1.105,0.369 2.236,0.552 3.476,0.571 0.379,0.005 0.681,0.445 0.46,0.788 -1.669,2.592 -4.077,4.305 -6.463,6.189 -2.651,2.094 -5.196,4.32 -7.625,6.669 -4.218,4.077 -8.035,8.52 -11.473,13.259 8.934,-7.524 17.741,-15.233 26.852,-22.528 0.538,-0.431 1.311,0.295 0.776,0.776 C 21.262,-15.858 10.963,-7.664 0.882,0.672 0.434,1.043 -0.379,0.564 0,0" style="fill-opacity: 1; fill-rule: nonzero; stroke: none; fill: rgb(255, 255, 255);" id="path30"/>
        </g>
        <g id="g32" transform="translate(310.1892,295.3325)">
          <path d="m 0,0 c 0.755,-2.113 1.905,-4.174 2.909,-6.18 0.209,-0.417 0.9,-0.42 1.108,0 1.117,2.256 2.27,4.495 3.352,6.768 C 7.652,1.184 6.8,1.706 6.47,1.113 5.893,0.074 5.332,-0.973 4.775,-2.022 4.771,-2 4.77,-1.979 4.764,-1.957 4.083,0.556 3.378,5.95 7.931,4.948 9.435,4.617 10.736,3.424 12.078,2.715 13.698,1.859 15.593,1.33 17.143,2.64 c 1.673,1.415 1.464,3.888 0.988,5.807 -0.436,1.76 -1.178,3.454 -1.784,5.161 -0.218,0.586 -0.423,1.176 -0.616,1.771 0.407,1.042 0.814,2.083 1.221,3.125 1.131,1.032 3.332,0.784 4.714,0.561 3.718,-0.599 12.713,-7.833 15.115,-1.347 2.128,5.744 -2.59,13.336 -6.795,16.852 -0.319,0.267 -0.771,-0.163 -0.464,-0.464 2.937,-2.889 5.15,-6.398 6.06,-10.451 0.556,-2.473 1.046,-5.941 -1.791,-7.308 -1.794,-0.864 -4.711,1.157 -6.226,1.932 -3.2,1.639 -13.072,4.729 -13.308,-1.819 C 14.138,13.159 16.76,10.072 17.068,6.766 17.67,0.292 11.818,4.769 9.238,5.88 7.416,6.666 5.496,6.667 4.09,5.096 2.223,3.01 2.776,0.13 3.573,-2.285 3.711,-2.702 4.128,-2.792 4.436,-2.657 4.129,-3.237 3.82,-3.816 3.513,-4.396 2.784,-2.742 2.048,-1.045 1.123,0.474 0.774,1.046 -0.243,0.679 0,0" style="fill-opacity: 1; fill-rule: nonzero; stroke: none; fill: rgb(255, 255, 255);" id="path34"/>
        </g>
        <g id="g36" transform="translate(266.7614,394.9327)">
          <path d="m 0,0 c -1.06,-2.465 -2.047,-5.201 -4.121,-7.026 -3.38,-2.975 -7.437,-0.718 -10.58,1.397 -4.628,3.113 -8.703,7.288 -14.242,8.765 -9.688,2.582 -20.074,-3.377 -22.409,-13.065 -0.258,1.133 -0.432,2.281 -0.637,3.451 -0.077,0.441 -0.738,0.313 -0.753,-0.102 -0.073,-2.016 0.415,-4.073 0.889,-6.017 0.104,-0.426 0.739,-0.637 1.038,-0.274 1.446,1.755 3.083,3.352 4.52,5.101 0.512,0.622 -0.249,1.361 -0.873,0.873 -1.308,-1.025 -2.484,-2.374 -3.534,-3.746 1.891,6.073 6.284,11.073 12.674,12.619 6.941,1.678 12.708,-1.269 18.082,-5.357 3.585,-2.728 8.449,-7.339 13.385,-6.365 4.216,0.831 6.546,5.571 7.617,9.301 C 1.231,0.165 0.264,0.614 0,0" style="fill-opacity: 1; fill-rule: nonzero; stroke: none; fill: rgb(255, 255, 255);" id="path38"/>
        </g>
        <g id="g40" transform="translate(306.0555,142.7826)">
          <path d="m 0,0 c -2.664,4.193 -7.703,9.062 -13.076,9.253 2.892,0.694 6,1.567 8.425,3.14 0.524,0.34 0.202,1.22 -0.437,1.036 -3.344,-0.96 -6.443,-2.457 -9.866,-3.256 -0.583,-0.136 -0.614,-0.916 -0.158,-1.213 0.098,-0.064 0.19,-0.133 0.286,-0.198 0.03,-0.067 0.088,-0.124 0.185,-0.154 0.021,-0.006 0.042,-0.012 0.064,-0.019 0.164,-0.115 0.327,-0.23 0.486,-0.349 1.287,-2.026 3.256,-3.737 4.891,-5.485 0.491,-0.525 1.31,0.145 0.976,0.753 -0.845,1.534 -1.899,2.895 -3.118,4.099 1.676,-0.552 3.277,-1.218 4.811,-2.343 2.508,-1.838 4.545,-4.293 6.044,-7.006 3.072,-5.56 3.891,-11.947 4.51,-18.19 -0.065,-0.112 -0.101,-0.246 -0.077,-0.405 0.079,-0.587 0.177,-1.171 0.294,-1.751 0.135,-0.73 1.372,-0.572 1.306,0.176 C 4.893,-14.469 4.103,-6.458 0,0" style="fill-opacity: 1; fill-rule: nonzero; stroke: none; fill: rgb(255, 255, 255);" id="path42"/>
        </g>
        <g id="g44" transform="translate(173.2231,421.7749)">
          <path d="m 0,0 c 6.839,-3.159 13.104,-7.258 18.73,-12.257 -4.328,-2.391 -10.048,1.42 -14.738,-0.467 -0.536,-0.216 -0.669,-0.885 -0.16,-1.224 2.951,-1.968 5.903,-3.936 8.855,-5.903 1.328,-0.886 2.656,-1.771 3.985,-2.657 0.533,-0.355 1.891,-0.896 2.214,-1.475 0.125,-0.832 0.251,-1.664 0.377,-2.496 -0.485,-0.157 -0.983,-0.246 -1.492,-0.266 -4.992,-0.558 -9.765,2.338 -14.612,0.054 -0.5,-0.235 -0.362,-0.886 0,-1.154 6.849,-5.052 13.816,-9.937 20.892,-14.664 -8.712,-3.292 -18.382,0.719 -27.382,-1.222 -0.263,-0.057 -0.495,-0.356 -0.478,-0.627 0.262,-4.122 6.297,-5.47 9.338,-6.836 4.594,-2.063 9.175,-4.173 13.81,-6.148 -0.437,-0.004 -0.874,-0.015 -1.311,-0.047 -0.098,-0.007 -0.855,-0.037 -1.352,-0.133 -0.007,0.026 -0.015,0.052 -0.023,0.078 -0.034,0.114 -0.133,0.183 -0.248,0.189 -0.774,0.045 -0.956,-0.808 -0.354,-1.221 0.67,-0.46 2.125,-0.076 2.874,-0.076 1.648,0 3.268,-0.154 4.889,-0.447 0.661,-0.12 1.06,0.578 0.637,1.093 -1.771,2.153 -3.497,4.427 -5.426,6.438 -0.479,0.499 -1.408,-0.173 -0.982,-0.758 1.33,-1.826 2.842,-3.553 4.333,-5.272 -0.129,0.014 -0.258,0.028 -0.387,0.04 -4.397,2.168 -8.885,4.163 -13.345,6.196 -2.325,1.059 -4.656,2.108 -6.976,3.179 -0.959,0.443 -2.642,0.988 -3.303,1.865 -1.679,2.224 1.39,1.704 2.629,1.774 8.338,0.469 16.823,-2.378 24.785,1.223 0.486,0.22 0.374,0.897 0,1.146 -7.082,4.71 -14.048,9.589 -20.902,14.624 3.441,1.056 7.04,-0.39 10.556,-0.655 1.797,-0.135 5.922,-0.26 6.136,2.321 0.205,2.48 -3.992,4.281 -5.55,5.32 -3.426,2.283 -6.852,4.567 -10.278,6.851 4.788,0.904 10.146,-2.586 14.432,0.7 0.321,0.246 0.489,0.731 0.136,1.052 C 14.444,-6.535 7.87,-2.166 0.676,1.157 -0.101,1.516 -0.783,0.362 0,0" style="fill-opacity: 1; fill-rule: nonzero; stroke: none; fill: rgb(255, 255, 255);" id="path46"/>
        </g>
        <g id="g48" transform="translate(135.5199,310.7666)">
          <path d="m 0,0 c -0.191,0.231 -0.382,0.462 -0.573,0.694 0.085,3.197 -0.258,6.321 -1.141,9.403 -0.233,0.813 -1.481,0.487 -1.271,-0.334 0.634,-2.468 1.002,-4.927 1.069,-7.445 -4.83,5.843 -9.683,11.67 -14.742,17.316 -0.919,1.025 -1.85,2.039 -2.782,3.051 0.186,2.083 0.506,4.282 0.229,6.347 -0.066,0.492 -0.841,0.45 -0.94,0 -0.362,-1.637 -0.384,-3.384 -0.449,-5.094 -1.026,1.098 -2.056,2.192 -3.1,3.272 -0.165,2.979 0.096,6.089 -0.416,8.973 -0.084,0.473 -0.779,0.421 -0.894,0 -0.616,-2.264 -0.462,-4.925 -0.198,-7.423 -0.018,0.019 -0.036,0.038 -0.055,0.057 -1.373,1.393 -2.76,2.855 -4.21,4.244 0.031,0.785 0.061,1.569 0.091,2.354 0.025,0.672 -0.141,2.168 0.071,3.033 0.22,0.07 0.352,0.286 0.366,0.507 0.019,0.31 -0.043,0.49 -0.281,0.69 -0.285,0.24 -0.593,0.221 -0.882,0 -0.704,-0.539 -0.501,-1.628 -0.529,-2.416 -0.034,-0.998 -0.068,-1.995 -0.103,-2.993 -1.116,1 -2.277,1.936 -3.504,2.746 -0.354,0.233 -0.657,-0.269 -0.422,-0.555 0.961,-1.172 2.015,-2.28 3.107,-3.36 -1.76,0.379 -3.443,0.934 -5.17,1.528 -0.436,0.15 -0.702,-0.365 -0.548,-0.712 0.14,-0.356 0.279,-0.711 0.419,-1.067 0.144,-0.416 0.743,-0.26 0.661,0.173 l -0.041,0.278 c 1.864,-0.876 3.889,-1.4 5.913,-1.748 0.122,-0.021 0.239,-0.011 0.345,0.019 1.41,-1.34 2.838,-2.663 4.178,-4.034 0.02,-0.02 0.039,-0.041 0.059,-0.062 -2.607,1.084 -5.565,2.216 -8.205,2.249 -0.175,0.003 -0.359,-0.099 -0.441,-0.256 -0.039,-0.074 -0.078,-0.149 -0.117,-0.222 -0.058,-0.111 -0.07,-0.256 0,-0.366 0.158,-0.248 0.248,-0.29 0.544,-0.311 0.123,-0.009 0.239,0.086 0.286,0.198 1.062,-0.448 3.454,-1.061 3.87,-1.192 1.778,-0.562 3.512,-1.228 5.224,-1.967 0.192,-0.083 0.435,-0.078 0.629,0.009 0.719,-0.752 1.424,-1.516 2.133,-2.277 -2.141,0.441 -4.321,0.932 -6.465,0.986 -0.434,0.011 -0.455,-0.574 -0.091,-0.708 2.507,-0.93 5.337,-1.243 7.961,-1.784 1.069,-1.164 2.129,-2.336 3.179,-3.517 C -12.827,13.332 -8.564,8.254 -4.333,3.15 -5.658,3.93 -6.982,4.71 -8.307,5.49 -9.062,5.935 -9.656,4.816 -8.968,4.326 -6.31,2.433 -3.591,0.642 -0.803,-1.054 -0.12,-1.469 0.455,-0.551 0,0" style="fill-opacity: 1; fill-rule: nonzero; stroke: none; fill: rgb(255, 255, 255);" id="path50"/>
        </g>
        <g id="g52" transform="translate(189.1215,352.1129)">
          <path d="m 0,0 c -2.483,2.871 -6.374,3.635 -9.964,4.105 -4.074,0.534 -8.408,0.473 -12.121,-1.497 -6.376,-3.383 -8.996,-11.427 -6.144,-17.976 3.167,-7.269 12.85,-11.502 20.07,-7.477 -0.135,-0.209 -0.279,-0.414 -0.437,-0.614 -0.221,-0.279 -0.731,-1.033 -1.19,-1.419 -0.086,0.048 -0.179,0.082 -0.273,0.077 -1.464,-0.074 -0.847,-2.2 0.568,-1.475 0.8,0.409 1.508,1.449 2.042,2.151 0.625,0.82 1.094,1.696 1.34,2.7 0.111,0.451 -0.207,0.772 -0.628,0.825 -0.947,0.118 -1.894,0.236 -2.841,0.348 -0.64,0.075 -1.333,0.229 -1.996,0.248 -0.031,0.018 -0.064,0.033 -0.096,0.042 -0.259,0.069 -0.544,0.005 -0.726,-0.205 -0.259,-0.297 -0.178,-0.797 0.238,-0.905 1.182,-0.306 2.427,-0.458 3.661,-0.606 -3.376,-1.057 -6.532,-1.728 -10.084,-0.682 -3.279,0.965 -6.104,3.233 -7.774,6.216 -3.673,6.56 -1.035,15.23 6.08,18.103 5.967,2.409 17.855,1.688 20.673,-5.129 1.538,-3.719 0.026,-7.968 -3.578,-9.824 -1.668,-0.858 -3.631,-0.942 -5.396,-0.348 -1.68,0.565 -6.658,4.221 -3.75,6.348 0.392,0.287 0.059,0.895 -0.387,0.662 -2.156,-1.124 -1.276,-3.831 -0.061,-5.393 1.825,-2.348 4.99,-3.624 7.932,-3.11 C 2.09,-13.625 4.392,-5.077 0,0" style="fill-opacity: 1; fill-rule: nonzero; stroke: none; fill: rgb(255, 255, 255);" id="path54"/>
        </g>
        <g id="g56" transform="translate(399.6489,180.6346)">
          <path d="M 0,0 C 2.771,-0.933 5.594,-1.665 8.48,-2.201 7.486,-3.054 6.493,-3.907 5.499,-4.761 3.676,-3.162 1.843,-1.576 0,0 m -0.152,-9.614 c -0.166,2.936 -0.395,5.933 -0.944,8.825 C 0.779,-2.388 2.645,-3.997 4.5,-5.619 2.949,-6.951 1.398,-8.282 -0.152,-9.614 M -3.688,1.42 c 0.36,-0.303 0.716,-0.612 1.075,-0.916 0.379,-3.846 0.993,-7.639 1.197,-11.509 0.031,-0.601 0.699,-0.855 1.143,-0.473 1.929,1.659 3.857,3.317 5.786,4.976 3.479,-3.057 6.925,-6.153 10.327,-9.296 3.119,-2.883 6.211,-5.795 9.273,-8.739 3.161,-3.04 6.166,-6.483 9.624,-9.177 0.272,-0.212 0.8,0.073 0.543,0.413 -2.442,3.23 -5.625,6.023 -8.511,8.854 -3.164,3.103 -6.367,6.165 -9.614,9.181 -3.505,3.256 -7.056,6.46 -10.645,9.622 1.31,1.127 2.621,2.254 3.931,3.38 0.365,0.314 0.183,1.034 -0.301,1.113 C 5.599,-0.409 1.216,0.812 -3.055,2.525 -3.659,2.767 -4.172,1.828 -3.688,1.42" style="fill-opacity: 1; fill-rule: nonzero; stroke: none; fill: rgb(255, 255, 255);" id="path58"/>
        </g>
        <g id="g60" transform="translate(166.4546,163.0369)">
          <path d="m 0,0 c -0.02,-0.024 -0.041,-0.048 -0.062,-0.072 -2.678,-0.049 -5.18,-0.555 -7.63,-1.651 -0.665,-0.297 -0.199,-1.462 0.485,-1.191 1.97,0.778 3.879,1.272 5.943,1.44 -6.035,-7.019 -12.465,-13.54 -19.179,-19.781 -1.771,0.913 -4.082,0.489 -5.476,-1.107 -0.544,-0.624 0.354,-1.54 0.918,-0.917 0.949,1.049 2.346,1.436 3.541,1.078 -1.179,-1.087 -2.364,-2.167 -3.56,-3.238 -1.492,1.052 -3.556,1.247 -5.222,0.398 -0.714,-0.364 -0.102,-1.358 0.602,-1.06 1.184,0.503 2.595,0.462 3.696,-0.155 -0.877,-0.78 -1.753,-1.56 -2.638,-2.333 -1.521,1.238 -4.494,1.789 -5.314,-0.318 -0.168,-0.429 0.366,-0.665 0.69,-0.531 0.861,0.354 1.424,0.836 2.44,0.634 0.461,-0.092 0.903,-0.289 1.279,-0.571 -1.145,-0.994 -2.295,-1.984 -3.453,-2.968 -1.501,1.434 -4.534,1.764 -5.615,-0.284 -0.28,-0.531 0.388,-1.03 0.829,-0.631 1.154,1.045 2.861,1.21 3.957,0.213 -1.119,-0.947 -2.241,-1.891 -3.37,-2.831 -0.446,-0.371 0.149,-1.165 0.624,-0.82 1.165,0.845 2.316,1.712 3.46,2.59 0.689,-1.656 -0.082,-3.482 -1.171,-4.775 -0.304,-0.362 0.166,-0.847 0.524,-0.524 1.586,1.434 2.471,3.982 1.53,5.978 1.211,0.942 2.408,1.905 3.596,2.88 0.719,-1.745 -0.343,-3.73 -1.651,-4.867 -0.479,-0.417 0.211,-1.078 0.691,-0.69 1.797,1.449 2.957,4.156 1.886,6.321 0.968,0.806 1.923,1.63 2.876,2.457 0.042,-0.062 0.086,-0.122 0.125,-0.188 1.021,-1.728 0.32,-4.026 -1.248,-5.148 -0.47,-0.336 -0.047,-1.121 0.451,-0.795 2.097,1.371 3.08,4.232 1.799,6.512 -0.075,0.133 -0.157,0.26 -0.244,0.383 1.291,1.134 2.562,2.292 3.824,3.46 0.18,-0.207 0.341,-0.445 0.476,-0.717 1.114,-2.239 -0.754,-4.116 -2.255,-5.537 -0.481,-0.455 0.229,-1.145 0.72,-0.721 2.246,1.939 4.222,4.732 2.136,7.579 -0.059,0.081 -0.125,0.152 -0.188,0.226 6.343,5.941 12.333,12.281 17.969,18.81 -0.524,-2.763 -1.145,-5.503 -1.867,-8.227 -0.225,-0.849 0.992,-1.124 1.292,-0.338 1.412,3.693 2.373,7.468 2.9,11.387 C 1.193,-0.066 0.478,0.566 0,0" style="fill-opacity: 1; fill-rule: nonzero; stroke: none; fill: rgb(255, 255, 255);" id="path62"/>
        </g>
        <g id="g64" transform="translate(298.8896,122.7993)">
          <path d="M 0,0 C -1.132,2.546 -3.411,4.699 -5.675,6.252 -6.058,6.515 -6.483,6.219 -6.63,5.863 -7.589,3.528 -8.571,1.187 -9.322,-1.227 -9.485,-1.752 -8.64,-2.133 -8.415,-1.609 -7.514,0.482 -6.68,2.6 -5.747,4.678 -5.612,4.57 -5.479,4.462 -5.35,4.352 c 0.84,-4.006 1.327,-8.59 0.131,-12.591 -1.571,-5.252 -6.633,-5.484 -10.852,-3.189 -3.614,1.967 -5.56,5.24 -7.478,8.724 -1.298,2.357 -2.665,4.968 -5.049,6.412 -4.858,2.942 -8.38,-2.112 -10.031,-6.172 -1.487,-3.66 -3.204,-12.063 0.948,-14.695 0.319,-0.202 0.715,0.288 0.411,0.532 -4.75,3.812 -0.306,21.636 6.713,19.834 3.75,-0.962 5.451,-6.003 7.194,-8.987 1.341,-2.297 2.96,-4.339 5.152,-5.881 3.53,-2.483 9.266,-4.152 12.537,-0.354 3.171,3.683 2.893,9.906 2.01,14.72 0.924,-1.024 1.749,-2.131 2.612,-3.32 C -0.588,-1.254 0.319,-0.718 0,0" style="fill-opacity: 1; fill-rule: nonzero; stroke: none; fill: rgb(255, 255, 255);" id="path66"/>
        </g>
        <g id="g68" transform="translate(207.6409,150.3892)">
          <path d="m 0,0 c -1.074,-3.077 -3.591,-4.197 -6.663,-4.263 -1.438,-0.03 -3.085,0.368 -4.454,-0.158 -1.994,-0.767 -2.206,-3.014 -2.031,-4.937 -0.108,0.488 -0.203,0.967 -0.288,1.427 -0.612,3.302 0.404,6.241 4.207,6.43 1.587,0.079 3.116,-0.469 4.721,-0.276 7.4,0.889 2.277,9.436 0.616,13.147 -0.229,0.512 -0.973,0.31 -1.118,-0.146 -0.329,-1.033 -0.73,-2.002 -1.199,-2.947 -0.453,3.608 -0.907,7.215 -1.361,10.822 2.698,-2.138 5.379,-4.299 8.046,-6.475 -1.097,0.399 -2.209,0.758 -3.35,1.063 -0.507,0.135 -0.998,-0.446 -0.701,-0.913 C -1.205,9.04 1.599,4.581 0,0 m 4.636,10.815 c -4.15,3.422 -8.337,6.797 -12.563,10.125 -0.354,0.279 -1.12,0.159 -1.045,-0.433 L -7.178,6.341 c 0.071,-0.566 0.791,-0.864 1.13,-0.306 0.68,1.117 1.238,2.25 1.705,3.439 0.859,-1.749 1.834,-3.564 2.286,-5.386 1.177,-4.738 -2.426,-4.803 -5.525,-4.501 -2.894,0.282 -5.676,0.067 -6.871,-3.003 -1.184,-3.045 0.225,-6.974 1.36,-9.834 0.842,-2.121 1.993,-3.922 3.842,-5.039 0.201,-0.231 0.402,-0.462 0.616,-0.683 0.266,-0.275 0.605,-0.207 0.815,0.001 0.018,-0.007 0.033,-0.015 0.051,-0.022 0.528,-0.179 0.721,0.621 0.226,0.821 -0.128,0.052 -0.245,0.116 -0.367,0.175 -2.454,2.732 -7.211,11.38 -1.338,12.514 1.557,0.301 3.265,-0.16 4.871,0.154 1.29,0.252 2.49,0.763 3.475,1.647 C 3.934,0.664 1.157,7.291 -1.664,12.039 0.24,11.45 2.078,10.73 3.887,9.844 4.474,9.557 5.213,10.34 4.636,10.815" style="fill-opacity: 1; fill-rule: nonzero; stroke: none; fill: rgb(255, 255, 255);" id="path70"/>
        </g>
        <g id="g72" transform="translate(223.5355,125.5305)">
          <path d="m 0,0 c -0.214,-0.967 -0.568,-1.885 -1.028,-2.75 -2.131,-0.522 -4.4,-0.483 -6.442,0.304 -5.357,2.063 -5.928,10.149 0.389,11.366 C -2.002,9.899 0.97,4.388 0,0 M 12.699,16 C 11.524,18.628 8.864,20.643 6.396,21.987 5.939,22.237 5.468,21.915 5.423,21.429 5.363,20.763 5.298,20.097 5.234,19.43 5.143,19.265 5.113,19.064 5.181,18.869 4.965,16.64 4.751,14.409 4.629,12.175 4.602,11.687 5.415,11.563 5.495,12.058 5.779,13.813 6.006,15.578 6.221,17.345 10.128,11.155 9.168,2.77 2.502,-1.287 1.956,-1.62 1.378,-1.912 0.779,-2.16 c 0.964,2.277 1.158,4.805 0.156,7.417 -2.584,6.736 -13,6.785 -13.993,-1.01 -0.847,-6.654 5.592,-9.051 11.182,-8.367 -1.484,-2.083 -3.597,-3.762 -5.831,-4.89 -3.593,-1.814 -7.791,-2.263 -11.68,-1.219 -3.731,1.002 -11.018,4.796 -9.294,9.727 0.166,0.473 -0.56,0.652 -0.739,0.204 -1.474,-3.691 1.879,-6.915 4.732,-8.786 3.609,-2.366 8.034,-3.355 12.302,-2.703 4.559,0.696 9.732,3.79 12.322,8.008 0.919,0.234 1.787,0.554 2.559,0.96 8.219,4.319 9.596,15.138 3.959,22.088 0.043,0.363 0.088,0.725 0.132,1.087 2.096,-1.376 3.546,-3.126 5.292,-4.99 0.434,-0.463 1.048,0.125 0.821,0.634" style="fill-opacity: 1; fill-rule: nonzero; stroke: none; fill: rgb(255, 255, 255);" id="path74"/>
        </g>
        <g id="g76" transform="translate(318.7332,162.7808)">
          <path d="M 0,0 C 1.793,3.117 7.821,4.819 8.97,0.106 10.368,-5.628 2.737,-6.467 -0.909,-5.263 -1.179,-3.473 -0.937,-1.629 0,0 M 32.487,6.91 C 29.402,5.917 25.19,5.573 22.959,8.433 c -2.832,3.631 0.83,7.179 4.68,6.061 3.229,-0.938 4.625,-4.039 5.028,-7.519 C 32.607,6.954 32.548,6.929 32.487,6.91 M 44.464,31.787 C 41.141,39.595 32.179,45.444 23.743,42.053 23.287,41.87 23.465,41.133 23.951,41.298 36.695,45.631 47.29,31.067 44.275,19.429 42.91,14.163 38.971,9.633 33.98,7.481 c -0.313,1.781 -0.89,3.455 -1.767,4.907 -1.513,2.501 -4.157,3.989 -7.104,3.602 -2.723,-0.358 -4.84,-2.517 -4.516,-5.361 0.705,-6.173 6.981,-6.41 12.172,-4.84 0.169,-3.144 -0.369,-6.428 -1.03,-8.604 C 29.793,-9.206 24.578,-12.887 18.297,-14.488 11.855,-16.131 4.111,-15.201 0.436,-8.997 0.004,-8.268 -0.341,-7.484 -0.588,-6.674 3.336,-7.9 7.382,-7.533 9.55,-3.551 12.933,2.662 4.457,6.728 0.113,2.264 -1.876,0.221 -2.541,-2.259 -2.292,-4.723 -5.078,-3.49 -7.531,-1.472 -9.326,0.977 -13.74,7 -13.419,14.711 -9.79,21.001 c 0.569,0.158 1.134,0.329 1.697,0.508 -0.827,-2.927 -1.026,-6.12 -0.102,-9.031 0.239,-0.752 1.254,-0.424 1.15,0.317 -0.471,3.369 -0.516,6.286 0.585,9.556 0.152,0.452 -0.343,0.971 -0.803,0.803 -3.885,-1.418 -7.801,-2.169 -11.9,-2.649 0.002,-0.006 0.004,-0.012 0.005,-0.018 -0.563,-0.015 -0.627,-0.92 -0.005,-0.912 2.675,0.035 5.326,0.422 7.921,1.05 -4.158,-6.767 -3.341,-15.695 1.915,-21.714 1.63,-1.866 4.346,-3.843 7.275,-5.052 0.899,-3.735 3.767,-7.229 7.16,-8.859 7.418,-3.562 18.441,-1.042 24.027,4.883 3.612,3.832 5.641,10.53 5.017,16.376 1.508,0.57 2.858,1.273 3.861,1.992 7.476,5.361 10.034,15.116 6.451,23.536" style="fill-opacity: 1; fill-rule: nonzero; stroke: none; fill: rgb(255, 255, 255);" id="path78"/>
        </g>
        <g id="g80" transform="translate(427.0573,356.7149)">
          <path d="m 0,0 c -1.615,-7.733 -9.218,-10.573 -16.403,-11.438 0.03,4.851 0.408,9.698 1.634,14.195 1.001,3.669 3.394,7.668 7.749,7.382 C -2.044,9.812 0.95,4.551 0,0 m -10.03,11.031 c -7.773,-2.886 -7.335,-15.423 -7.512,-21.965 -0.005,-0.209 -0.006,-0.417 -0.011,-0.626 -1.313,-0.122 -2.6,-0.184 -3.821,-0.2 -9.664,-0.131 -18.644,2.469 -27.959,4.224 2.789,0.485 5.54,1.163 8.229,2.081 0.789,0.269 0.465,1.509 -0.348,1.261 -4.272,-1.304 -8.543,-2.259 -12.997,-2.692 -0.665,-0.064 -0.895,-0.849 -0.336,-1.24 1.399,-0.979 2.702,-2.034 3.942,-3.153 1.614,-1.689 3.239,-3.369 4.86,-5.053 0.482,-0.501 1.434,0.185 0.99,0.764 -0.033,0.043 -0.068,0.083 -0.101,0.126 l 0.002,0.002 c -0.006,0.006 -0.013,0.012 -0.019,0.018 -1.704,2.2 -3.649,4.171 -5.766,5.952 -0.454,0.53 -0.939,1.071 -1.414,1.495 0.045,0.006 0.089,0.012 0.134,0.018 10.277,-3.514 22.093,-5.589 32.909,-5.062 0.55,0.027 1.109,0.066 1.672,0.115 -0.071,-5.931 0.241,-11.863 0.611,-17.781 0.417,-6.686 0.542,-13.503 1.359,-20.157 -2.213,2.954 -4.112,6.054 -6.145,9.154 -0.2,0.304 -0.775,0.116 -0.624,-0.263 1.629,-4.085 4.232,-7.846 6.963,-11.269 0.289,-0.362 0.809,-0.17 1.03,0.132 2.229,3.044 4.219,6.218 5.981,9.553 0.178,0.337 0.067,0.696 -0.239,0.909 -0.306,0.241 -0.636,0.444 -0.99,0.608 -0.542,0.29 -1.072,-0.392 -0.653,-0.846 1.025,-1.108 -2.196,-5.552 -4.102,-8.071 -0.042,9.113 -1.224,18.279 -1.641,27.383 -0.159,3.475 -0.353,7.114 -0.376,10.77 7.515,0.883 15.577,4.001 17.583,12.032 1.597,6.394 -4.099,14.421 -11.211,11.781" style="fill-opacity: 1; fill-rule: nonzero; stroke: none; fill: rgb(255, 255, 255);" id="path82"/>
        </g>
        <g id="g84" transform="translate(50.8746,271.4356)">
          <path d="m 0,0 c 5.062,2.396 11.822,0.039 11.876,-6.187 0.042,-4.971 -3.907,-8.522 -8.522,-9.503 -4.273,-0.909 -8.498,0.181 -12.392,1.945 C -8.356,-8.013 -5.251,-2.486 0,0 m -25.819,-1.582 c 2.93,-5.848 8.759,-9.504 14.405,-12.429 0.326,-0.169 0.656,-0.333 0.988,-0.495 -0.095,-0.96 -0.121,-1.9 -0.067,-2.799 0.6,-10.086 9.146,-18.335 19.236,-18.775 5.644,-0.246 11.279,2.163 15.221,6.166 2.575,2.615 5.864,7.491 4.654,11.369 1.398,-1.479 2.746,-2.998 4.213,-4.426 10e-4,0.002 0.002,0.003 0.003,0.005 0.35,-0.375 1.081,0.084 0.778,0.59 -1.78,2.978 -4.604,5.532 -7.184,7.807 -0.345,0.304 -1.008,0.227 -1.105,-0.299 -0.662,-3.625 -2.492,-6.006 -4.8,-8.741 -0.354,-0.419 0.095,-1.146 0.621,-0.816 2.761,1.73 4.467,4.978 5.227,8.131 0.082,-0.077 0.164,-0.154 0.246,-0.232 -0.12,-0.151 -0.165,-0.355 -0.04,-0.553 2.593,-4.102 -0.885,-9.294 -3.848,-12.179 -3.088,-3.007 -7.223,-5.024 -11.531,-5.427 -8.487,-0.794 -16.929,4.799 -19.53,12.906 -0.676,2.107 -0.942,4.395 -0.822,6.687 4.17,-1.837 8.718,-2.887 13.244,-1.781 4.607,1.124 8.411,4.515 9.033,9.361 0.582,4.525 -2.093,8.553 -6.572,9.59 -9.065,2.098 -15.449,-6.997 -16.802,-15.252 -0.606,0.3 -1.203,0.613 -1.789,0.935 -5.046,2.767 -10.034,6.018 -12.966,11.119 -0.302,0.525 -1.081,0.073 -0.813,-0.462" style="fill-opacity: 1; fill-rule: nonzero; stroke: none; fill: rgb(255, 255, 255);" id="path86"/>
        </g>
        <g id="g88" transform="translate(409.0392,419.1872)">
          <path d="m 0,0 c -9.21,-4.697 -15.985,-13.258 -18.72,-23.147 -1.217,5.68 -4.124,12.161 -10.926,10.685 -6.243,-1.354 -10.987,-8.186 -13.573,-14.128 -0.336,3.2 -0.764,6.389 -1.307,9.563 -0.652,3.804 -1.196,7.913 -2.639,11.514 -2.108,5.262 -7.805,7.265 -13.072,5.667 -6.167,-1.87 -11.04,-7.469 -14.404,-12.716 -3.285,-5.123 -5.371,-10.889 -6.223,-16.884 -1.675,4.869 -3.573,9.716 -6.658,13.866 -2.86,3.849 -7.218,7.629 -12.316,6.15 -0.089,0.833 0.639,1.253 1.533,2.014 1.288,1.096 2.64,2.05 4.073,2.943 0.425,0.265 0.053,0.887 -0.39,0.667 -2.601,-1.293 -4.906,-2.924 -6.974,-4.961 -0.185,-0.182 -0.267,-0.556 -0.101,-0.78 2.215,-2.982 4.302,-6.362 6.941,-8.981 0.412,-0.409 1.073,0.111 0.796,0.615 -1.52,2.766 -4.131,4.912 -5.603,7.68 -0.008,0.014 -0.013,0.027 -0.02,0.041 5.921,1.362 10.441,-4.5 13.007,-9.024 2.388,-4.211 3.909,-8.833 5.409,-13.414 0.235,-0.719 1.228,-0.561 1.286,0.174 0.9,11.407 6.956,24.931 17.649,30.372 2.778,1.414 6.069,1.961 9.057,0.873 3.385,-1.232 4.779,-4.206 5.596,-7.477 1.696,-6.782 2.689,-13.77 3.301,-20.726 0.066,-0.746 1.057,-0.91 1.31,-0.177 1.926,5.568 5.548,11.347 10.659,14.527 3.192,1.987 6.668,1.767 9.304,-1.01 2.609,-2.749 3.075,-6.873 3.512,-10.455 0.082,-0.674 1.165,-0.991 1.313,-0.177 2.012,11.022 8.971,20.331 18.84,25.577 C 1.406,-0.733 0.747,0.381 0,0" style="fill-opacity: 1; fill-rule: nonzero; stroke: none; fill: rgb(255, 255, 255);" id="path90"/>
        </g>
        <g id="g92" transform="translate(269.5808,329.4933)">
          <path d="m 0,0 c -1.51,-2.078 -2.989,-4.18 -4.468,-6.28 -0.833,7.072 -0.235,14.337 -2.098,21.26 -1.652,6.137 -5.479,11.28 -10.494,15.114 -11.95,9.134 -27.961,9.562 -42.356,8.922 -0.532,-0.024 -0.536,-0.816 0,-0.83 14.473,-0.388 30.102,-0.032 42.064,-9.539 5.106,-4.058 8.634,-9.49 9.94,-15.906 1.249,-6.136 0.914,-12.451 1.568,-18.662 -1.979,2.708 -3.818,5.501 -5.585,8.36 -0.302,0.489 -1.027,0.06 -0.766,-0.448 1.897,-3.689 4.156,-7.159 6.635,-10.483 0.019,-0.026 0.042,-0.045 0.062,-0.068 0.009,-0.054 0.015,-0.107 0.024,-0.161 0.139,-0.849 1.43,-0.489 1.292,0.356 -0.01,0.059 -0.017,0.118 -0.026,0.177 1.788,2.503 3.588,4.998 5.342,7.525 C 1.62,0.038 0.49,0.674 0,0" style="fill-opacity: 1; fill-rule: nonzero; stroke: none; fill: rgb(255, 255, 255);" id="path94"/>
        </g>
        <g id="g96" transform="translate(154.674,239.8923)">
          <path d="M 0,0 C 0.094,0.086 0.145,0.185 0.173,0.288 0.242,0.189 0.312,0.09 0.381,-0.008 -0.049,-0.298 -0.483,-0.576 -0.922,-0.839 -0.614,-0.559 -0.307,-0.28 0,0 m 1.899,0.153 c -1.838,2.618 -3.675,5.236 -5.512,7.855 -0.492,0.7 -1.654,0.031 -1.157,-0.676 1.45,-2.067 2.9,-4.133 4.35,-6.2 -0.018,0.003 -0.035,0.01 -0.054,0.011 -6.476,0.301 -12.891,-0.248 -19.22,-1.612 -1.089,11.622 -2.178,23.245 -3.267,34.867 -0.067,0.718 -1.102,0.949 -1.315,0.178 -5.108,-18.507 -8.026,-37.597 -11.336,-56.5 -4.467,20.866 -6.653,42.108 -6.652,63.454 0,0.609 -0.902,0.907 -1.194,0.323 -6.49,-13.007 -12.366,-26.354 -17.186,-40.074 -0.173,-0.494 0.59,-0.687 0.775,-0.214 4.951,12.638 10.295,25.092 16.329,37.248 0.086,-21.644 2.594,-43.238 7.354,-64.352 0.139,-0.62 1.17,-0.653 1.287,0 3.348,18.744 6.151,37.717 10.952,56.166 0.997,-10.635 1.993,-21.269 2.989,-31.904 0.042,-0.443 0.394,-0.748 0.848,-0.645 5.922,1.34 11.91,1.922 17.962,1.776 -1.066,-0.97 -2.131,-1.94 -3.197,-2.91 -0.474,-0.432 0.021,-1.368 0.652,-1.12 2.27,0.892 4.358,2.001 6.352,3.412 0.276,0.196 0.462,0.6 0.24,0.917" style="fill-opacity: 1; fill-rule: nonzero; stroke: none; fill: rgb(255, 255, 255);" id="path98"/>
        </g>
        <g id="g100" transform="translate(448.7776,212.8233)">
          <path d="m 0,0 c -3.23,2.099 -5.961,5.617 -6.057,9.609 -0.052,2.14 0.639,4.682 2.6,5.856 C -0.789,17.061 2.4,15.289 4.312,13.318 8.252,9.255 9.669,3.205 9.796,-2.729 6.424,-2.815 3.04,-1.976 0,0 m -30.867,-20.543 c 0.852,-3.1 1.487,-6.411 2.747,-9.37 0.258,-0.607 1.05,-0.126 0.974,0.411 -0.364,2.594 -1.225,5.189 -1.996,7.735 5.692,-7.984 15.602,-13.262 25.445,-9.91 8.917,3.037 13.093,12.319 14.3,21.03 0.285,2.058 0.47,4.467 0.461,6.995 4.724,0.496 9.366,2.609 12.794,5.969 C 24.211,2.663 23.682,3.182 23.32,2.856 19.883,-0.239 15.516,-2.237 11.05,-2.652 10.856,5.199 8.676,13.901 1.584,16.823 -1.992,18.297 -5.62,16.62 -6.86,12.982 -8.134,9.245 -6.779,5.131 -4.326,2.2 -0.669,-2.168 4.556,-3.976 9.804,-3.749 9.796,-6.506 9.525,-9.212 9.111,-11.653 7.883,-18.907 4.489,-26.548 -2.554,-29.794 c -9.126,-4.205 -18.829,0.413 -24.656,7.689 3.064,-1.086 6.114,-2.221 9.22,-3.17 0.556,-0.17 0.735,0.634 0.233,0.846 -3.538,1.492 -7.178,2.743 -10.768,4.107 -0.035,0.051 -0.071,0.101 -0.106,0.152 -0.223,0.335 -0.596,0.361 -0.879,0.222 -0.183,0.072 -0.368,0.138 -0.552,0.211 -0.48,0.188 -0.927,-0.364 -0.805,-0.806" style="fill-opacity: 1; fill-rule: nonzero; stroke: none; fill: rgb(255, 255, 255);" id="path102"/>
        </g>
        <g id="g104" transform="translate(189.7457,180.1003)">
          <path d="M 0,0 C -0.057,-0.029 -0.114,-0.058 -0.172,-0.087 -0.23,-0.098 -0.288,-0.112 -0.343,-0.14 -4.014,-2 -7.669,-3.891 -11.331,-5.77 c -0.76,-0.389 -0.09,-1.53 0.669,-1.144 2.889,1.469 5.778,2.938 8.667,4.407 -5.482,-8.235 -10.897,-16.511 -16.144,-24.899 -2.801,-4.477 -5.578,-8.972 -8.289,-13.504 -1.292,-2.158 -2.795,-4.319 -3.891,-6.586 -0.584,-1.207 -0.921,-2.038 -0.298,-3.273 0.187,-0.371 0.811,-0.113 0.676,0.286 -0.701,2.077 2.841,6.368 3.895,8.084 1.144,1.863 2.289,3.725 3.438,5.584 2.489,4.03 5.007,8.041 7.554,12.034 4.683,7.343 9.443,14.64 14.327,21.851 -0.603,-3.275 -1.426,-6.481 -2.41,-9.681 -0.249,-0.81 0.992,-1.139 1.262,-0.348 1.352,3.969 2.253,8.061 2.854,12.207 C 1.062,-0.18 0.554,0.282 0,0" style="fill-opacity: 1; fill-rule: nonzero; stroke: none; fill: rgb(255, 255, 255);" id="path106"/>
        </g>
        <g id="g108" transform="translate(471.3686,287.2238)">
          <path d="m 0,0 c -3.642,5.628 -9.795,8.663 -16.275,9.683 -12.87,2.025 -26.716,-2.032 -37.75,-8.582 -12.35,-7.331 -22.748,-18.785 -27.719,-32.365 0.27,3.017 0.797,5.972 1.439,8.954 0.104,0.483 -0.583,0.672 -0.74,0.203 -1.24,-3.714 -1.858,-7.622 -2.163,-11.517 -0.047,-0.59 0.731,-0.826 1.114,-0.462 1.409,1.339 2.863,2.608 4.432,3.761 0.493,0.362 3.753,2.998 4.345,2.468 0.502,-0.448 1.346,0.124 0.966,0.745 -0.906,1.479 -2.634,0.178 -3.678,-0.488 -1.488,-0.95 -2.904,-2.005 -4.261,-3.13 9.802,21.89 31.02,38.368 55.462,39.502 6.479,0.301 13.435,-0.577 18.855,-4.419 C -0.334,0.357 2.35,-6.448 2.31,-13.215 2.227,-27.137 -8.95,-37.756 -20.306,-44.087 c -14.359,-8.005 -30.708,-10.062 -46.802,-7.54 -0.508,0.079 -0.742,-0.667 -0.218,-0.791 14.414,-3.409 30.168,-1.167 43.503,5.067 12.191,5.698 24.86,15.855 27.106,29.934 C 4.227,-11.496 3.293,-5.088 0,0" style="fill-opacity: 1; fill-rule: nonzero; stroke: none; fill: rgb(255, 255, 255);" id="path110"/>
        </g>
        <g id="g112" transform="translate(304.9925,363.8846)">
          <path d="m 0,0 c -3.133,-4.666 -6.265,-9.333 -9.398,-13.999 -2.105,4.921 -4.422,9.74 -6.947,14.46 1.814,-0.294 3.627,-0.587 5.441,-0.881 0.444,-0.072 0.957,0.289 0.792,0.793 -2.934,8.944 -7.3,17.229 -13.165,24.573 2.789,3.128 5.501,6.326 8.236,9.502 C -9.742,24.054 -6.779,12.707 -6.337,1.037 -6.324,0.691 -6.043,0.353 -5.672,0.372 -3.748,0.468 -1.879,0.34 0,0 m -15.369,36.112 c -2.916,-3.376 -5.872,-6.722 -8.737,-10.142 -0.022,0.027 -0.043,0.054 -0.065,0.08 -0.238,0.287 -0.751,-0.098 -0.526,-0.4 0.095,-0.129 0.188,-0.259 0.283,-0.388 0.034,-0.24 0.194,-0.453 0.399,-0.549 5.259,-7.264 9.454,-15.192 12.32,-23.694 -1.891,0.308 -3.781,0.616 -5.672,0.925 -0.542,0.088 -1.018,-0.431 -0.734,-0.955 2.946,-5.427 5.614,-10.987 8.006,-16.68 0.213,-0.506 0.902,-0.368 1.15,0 3.545,5.277 7.09,10.553 10.635,15.83 0.235,0.35 -0.013,0.883 -0.41,0.971 -2.11,0.467 -4.178,0.659 -6.322,0.602 -0.55,11.982 -3.696,23.629 -9.273,34.257 -0.191,0.365 -0.773,0.467 -1.054,0.143" style="fill-opacity: 1; fill-rule: nonzero; stroke: none; fill: rgb(255, 255, 255);" id="path114"/>
        </g>
        <g id="g116" transform="translate(163.4539,180.6202)">
          <path d="M 0,0 C -1.366,3.132 -2.732,6.264 -4.098,9.396 -4.289,9.833 -4.854,9.768 -5.15,9.532 -15.793,1.057 -20.417,-13.551 -16.826,-26.59 c -6.511,5.301 -8.986,14.464 -7.157,22.592 2.094,9.301 8.926,16.67 16.713,21.745 0.103,0.067 0.175,0.15 0.225,0.239 0.212,0.047 0.398,0.238 0.337,0.517 -0.648,2.988 -1.33,5.966 -2.027,8.942 7.773,-3.73 15.498,-7.544 23.128,-11.56 C 9.049,11.092 4.248,5.783 0,0 m 15.892,16.613 c -8.303,4.39 -16.698,8.629 -25.233,12.553 -0.496,0.228 -1.101,-0.148 -0.948,-0.729 0.828,-3.155 1.677,-6.302 2.557,-9.442 -0.07,-0.017 -0.142,-0.044 -0.214,-0.091 -8.465,-5.518 -15.977,-13.793 -17.624,-24.091 -1.435,-8.97 1.886,-18.636 9.636,-23.719 0.477,-0.312 1.172,0.21 0.984,0.757 -4.383,12.796 -0.271,27.425 10.018,36.129 1.402,-3.214 2.803,-6.427 4.205,-9.641 0.221,-0.507 0.899,-0.359 1.156,0 4.539,6.329 9.756,12.076 15.599,17.222 0.316,0.279 0.23,0.859 -0.136,1.052" style="fill-opacity: 1; fill-rule: nonzero; stroke: none; fill: rgb(255, 255, 255);" id="path118"/>
        </g>
        <g id="g120" transform="translate(317.7259,362.3869)">
          <path d="M 0,0 C 3.268,-1.984 5.956,-4.54 8.351,-7.543 8.602,-7.858 9.055,-7.598 9.1,-7.267 9.158,-7.23 9.215,-7.183 9.268,-7.116 16.483,2.142 23.021,11.882 28.846,22.07 35.272,17.163 41.697,12.256 48.123,7.349 38.079,0.356 27.868,-6.388 17.487,-12.871 c -0.344,-0.215 -0.47,-0.758 -0.135,-1.052 2.231,-1.959 4.462,-3.918 6.693,-5.877 C 15.191,-22.513 6.338,-25.227 -2.516,-27.943 -2.055,-18.591 -1.177,-9.287 0,0 m 49.595,7.898 c -6.87,5.247 -13.741,10.493 -20.611,15.74 -0.286,0.218 -0.755,0.045 -0.916,-0.24 C 22.23,13.114 15.669,3.274 8.405,-6.057 6.166,-2.856 3.213,-0.331 -0.189,1.625 -0.513,1.811 -1.082,1.664 -1.142,1.237 c -1.413,-9.979 -2.286,-20.031 -2.756,-30.096 -0.02,-0.427 0.443,-0.766 0.844,-0.643 9.54,2.922 19.08,5.844 28.62,8.768 0.453,0.139 0.689,0.773 0.295,1.119 -2.308,2.026 -4.615,4.052 -6.923,6.078 10.386,6.505 20.609,13.262 30.657,20.278 0.443,0.31 0.412,0.842 0,1.157" style="fill-opacity: 1; fill-rule: nonzero; stroke: none; fill: rgb(255, 255, 255);" id="path122"/>
        </g>
        <g id="g124" transform="translate(113.3375,372.7633)">
          <path d="M 0,0 C -0.447,0.319 -1.041,-0.313 -0.756,-0.756 0.454,-2.63 2.32,-4.272 3.953,-5.88 3.891,-5.905 3.829,-5.93 3.767,-5.956 c -3.58,1.681 -7.4,2.963 -11.07,4.415 -3.713,1.47 -7.412,3.057 -11.264,4.133 -5.982,1.67 -12.544,1.787 -17.589,-2.332 -10.742,-8.771 -8.246,-25.689 -0.791,-35.612 4.445,-5.917 10.739,-10.373 17.959,-12.068 0.087,-0.102 0.176,-0.202 0.265,-0.299 -0.929,-0.104 -1.861,-0.155 -2.799,-0.14 -1.213,0.019 -2.441,0.238 -3.649,0.137 -0.259,-0.021 -0.416,-0.394 -0.14,-0.53 2.302,-1.133 5.48,-0.873 7.942,-0.56 0.519,0.066 0.876,0.661 0.451,1.087 -0.184,0.183 -0.36,0.37 -0.534,0.558 -0.01,0.159 -0.106,0.31 -0.314,0.367 -0.004,10e-4 -0.009,0.002 -0.013,0.004 -0.525,0.604 -1,1.242 -1.396,1.958 -0.613,1.111 -0.855,2.274 -1.317,3.433 -0.222,0.558 -1.134,0.558 -1.121,-0.144 0.028,-1.558 0.693,-3.149 1.619,-4.545 -14.593,5.161 -26.074,21.145 -20.866,36.861 2.981,8.995 10.892,13.033 19.987,11.031 7.92,-1.743 15.119,-5.796 22.741,-8.458 -1.567,-0.533 -3.162,-0.979 -4.784,-1.347 -0.655,-0.148 -0.382,-1.106 0.261,-0.996 2.2,0.378 4.329,0.974 6.422,1.713 0.167,-0.052 0.333,-0.108 0.5,-0.159 0.406,-0.122 0.712,0.25 0.707,0.601 0.097,0.037 0.196,0.069 0.293,0.107 0.455,0.177 0.66,0.703 0.295,1.09 C 3.81,-3.794 2.078,-1.483 0,0" style="fill-opacity: 1; fill-rule: nonzero; stroke: none; fill: rgb(255, 255, 255);" id="path126"/>
        </g>
        <g id="g128" transform="translate(151.1634,336.323)">
          <path d="m 0,0 c -7.151,3.893 -14.054,8.187 -20.737,12.835 3.221,0.218 6.446,0.43 9.654,0.778 0.629,0.069 0.663,1.025 0,1.009 -0.114,-0.003 -0.227,-0.009 -0.341,-0.012 0.253,0.117 0.42,0.375 0.296,0.722 -3.048,8.504 -7.236,16.536 -12.329,23.989 4.127,0.377 8.24,0.356 12.373,-0.071 0.463,-0.048 0.723,0.464 0.645,0.848 L -14.757,61.4 c 4.681,-8.942 9.2,-17.967 13.54,-27.079 -3.423,-0.934 -6.879,-1.369 -10.443,-1.301 -0.428,0.009 -0.77,-0.435 -0.646,-0.847 1.681,-5.575 3.698,-11.021 6.039,-16.352 0.21,-0.48 0.921,-0.392 1.156,0 1.822,3.03 4.061,5.649 6.763,7.881 C 1.611,15.769 1.067,7.862 0,0 m 1.992,25.663 c -3.01,-2.28 -5.514,-4.942 -7.564,-8.069 -1.975,4.604 -3.697,9.299 -5.173,14.086 3.631,0.015 7.154,0.527 10.656,1.561 0.441,0.131 0.586,0.593 0.4,0.984 -5.121,10.782 -10.481,21.446 -16.079,31.989 -0.372,0.7 -1.369,0.198 -1.224,-0.516 1.692,-8.345 3.383,-16.689 5.075,-25.033 -4.247,0.383 -8.475,0.347 -12.721,-0.119 -0.455,-0.05 -0.9,-0.547 -0.578,-1.007 5.325,-7.636 9.556,-15.843 12.827,-24.555 0.077,-0.204 0.221,-0.331 0.385,-0.394 -3.541,-0.11 -7.08,-0.363 -10.616,-0.582 -0.669,-0.042 -0.852,-0.835 -0.328,-1.212 7.39,-5.31 15.128,-10.102 23.139,-14.418 0.335,-0.18 0.914,-0.049 0.977,0.398 1.229,8.725 1.847,17.499 1.83,26.31 -0.001,0.461 -0.586,0.895 -1.006,0.577" style="fill-opacity: 1; fill-rule: nonzero; stroke: none; fill: rgb(255, 255, 255);" id="path130"/>
        </g>
        <g id="g132" transform="translate(239.7236,310.3356)">
          <path d="M 0,0 C 0.252,-0.358 0.717,-0.464 1.056,-0.143 3.466,2.143 6.103,4.034 9.012,5.586 8.754,-1.617 8.497,-8.82 8.24,-16.023 c -6.198,2.344 -12.532,4.252 -18.99,5.729 2.347,2.572 4.651,5.181 6.974,7.774 0.362,0.405 -0.208,0.991 -0.596,0.612 -3.257,5.552 -13.334,5.868 -18.867,5.1 -6.846,-0.95 -13.19,-4.226 -17.824,-9.34 C -44,-2.405 -47.155,1.133 -50.539,4.477 -36.01,18.802 -11.831,16.802 0,0 m -51.969,4.009 c 3.739,-3.651 7.201,-7.533 10.401,-11.665 0.211,-0.272 0.733,-0.249 0.947,0 4.068,4.736 9.547,7.918 15.658,9.194 2.953,0.617 6.009,0.774 9.009,0.433 3.628,-0.413 8.675,-1.461 10.672,-4.805 -2.4,-2.453 -4.811,-4.894 -7.174,-7.383 -0.33,-0.348 -0.204,-0.989 0.298,-1.1 7.111,-1.581 14.066,-3.686 20.864,-6.304 0.421,-0.162 0.825,0.26 0.839,0.648 0.282,7.894 0.564,15.787 0.846,23.68 0.019,0.531 -0.569,0.796 -1,0.583 C 6.183,5.703 3.304,3.721 0.674,1.321 c -5.857,7.924 -14.827,13.234 -24.7,14.158 -10.354,0.97 -20.728,-3.12 -27.943,-10.523 -0.251,-0.257 -0.262,-0.69 0,-0.947" style="fill-opacity: 1; fill-rule: nonzero; stroke: none; fill: rgb(255, 255, 255);" id="path134"/>
        </g>
        <g id="g136" transform="translate(220.966,155.9075)">
          <path d="m 0,0 c -1.115,0.588 -1.458,1.402 -1.027,2.443 -0.074,1.178 0.38,2.604 0.551,3.778 l 2.284,15.654 c 0.105,0.717 -0.819,1.082 -1.163,0.641 -0.083,0.198 -0.273,0.338 -0.548,0.245 -3.037,-1.027 -6.058,-2.103 -9.081,-3.17 3.814,8.224 7.589,16.465 11.375,24.702 5.518,-8.101 9.453,-17.075 11.668,-26.62 -2.58,1.411 -4.952,3.081 -7.16,5.064 C 6.374,23.208 5.692,22.733 5.788,22.09 6.932,14.476 8.075,6.861 9.218,-0.754 6.886,-0.563 4.554,-0.372 2.221,-0.181 1.481,-0.121 0.74,-0.06 0,0 M 15.664,16.593 C 13.413,27.175 9.078,37.118 2.852,45.966 c -0.258,0.366 -0.921,0.493 -1.148,0 -4.163,-9.053 -8.347,-18.097 -12.475,-27.167 -0.207,-0.454 0.147,-1.173 0.732,-0.952 3.468,1.316 6.946,2.606 10.399,3.962 0.047,0.018 0.08,0.047 0.117,0.074 C -0.032,18.399 -0.54,14.916 -1.048,11.432 -1.557,7.944 -2.603,4.157 -2.624,0.637 c -0.007,-1.227 0.244,-1.59 1.425,-1.863 3.51,-0.811 7.599,-0.626 11.194,-0.92 0.476,-0.039 0.699,0.453 0.641,0.841 -1.097,7.306 -2.194,14.613 -3.291,21.919 2.266,-1.86 4.699,-3.449 7.343,-4.772 0.529,-0.264 1.1,0.17 0.976,0.751" style="fill-opacity: 1; fill-rule: nonzero; stroke: none; fill: rgb(255, 255, 255);" id="path138"/>
        </g>
        <g id="g140" transform="translate(69.0675,293.8927)">
          <path d="M 0,0 C 0.286,0.234 0.228,0.705 0,0.947 -2.806,3.926 -5.612,6.905 -8.418,9.883 3.131,12.06 13.64,2.654 25.36,4.618 c 0.055,0.009 0.104,0.023 0.149,0.041 0.266,-0.057 0.589,0.148 0.507,0.499 -0.774,3.281 -1.282,6.6 -1.546,9.955 7.996,-5.54 15.994,-11.08 23.994,-16.615 -7.536,-4.586 -14.804,-9.573 -21.804,-14.94 0.22,3.209 0.44,6.418 0.66,9.627 0.023,0.335 -0.327,0.706 -0.67,0.669 C 14.081,-7.47 1.511,-8.795 -11.059,-10.119 -7.558,-6.546 -3.88,-3.165 0,0 M 50.026,-0.959 C 41.367,5.031 32.703,11.014 24.04,16.998 23.648,17.268 23.014,16.913 23.055,16.433 23.367,12.849 23.988,9.359 24.944,5.901 12.896,3.922 2.211,13.997 -9.891,10.928 c -0.503,-0.127 -0.633,-0.761 -0.296,-1.119 2.914,-3.094 5.828,-6.187 8.742,-9.281 -4.176,-3.44 -8.136,-7.113 -11.87,-11.031 -0.365,-0.383 -0.135,-1.208 0.474,-1.144 12.923,1.362 25.847,2.724 38.77,4.086 -0.235,-3.435 -0.471,-6.87 -0.707,-10.304 -0.044,-0.647 0.733,-0.793 1.144,-0.474 7.562,5.874 15.46,11.281 23.66,16.223 0.454,0.274 0.409,0.874 0,1.157" style="fill-opacity: 1; fill-rule: nonzero; stroke: none; fill: rgb(255, 255, 255);" id="path142"/>
        </g>
        <g id="g144" transform="translate(128.5979,196.8762)">
          <path d="m 0,0 c -1.447,0.373 -2.897,0.739 -4.345,1.107 -0.371,0.094 -2.544,0.659 -3.682,0.805 10e-4,0.021 0.002,0.042 0.003,0.063 C -8.015,2.13 -8.14,2.276 -8.283,2.316 -8.536,2.388 -8.64,2.368 -8.875,2.265 -9.045,2.19 -9.114,1.952 -9.07,1.786 c 0.282,-1.068 1.98,-1.148 2.866,-1.398 0.332,-0.094 0.665,-0.186 0.997,-0.28 -0.877,-0.242 -1.749,-0.607 -2.63,-1.005 -3.092,-1.398 -6.166,-2.916 -9.025,-4.748 -4.408,-2.823 -8.321,-6.501 -10.362,-11.409 -1.898,-4.563 -2.061,-9.921 0.657,-14.197 2.55,-4.01 7.94,-8.8 13.06,-8.004 7.829,1.217 18.129,12.485 9.32,19.147 -3.532,2.672 -8.804,1.853 -11.431,-1.716 -1.913,-2.597 -1.962,-7.308 1.422,-8.771 3.668,-1.586 9.109,2.039 7.816,6.214 -1.07,3.453 -6.212,3.441 -6.312,-0.445 -0.012,-0.49 0.707,-0.473 0.752,0 0.417,2.333 1.903,2.381 4.46,0.142 -0.093,-0.803 -0.187,-1.607 -0.281,-2.41 -0.555,-1.412 -2.394,-2.282 -3.788,-2.449 -3.266,-0.391 -4.715,2.54 -3.817,5.359 1.581,4.96 8.351,5.572 11.514,1.946 3.64,-4.173 0.676,-9.345 -2.972,-12.212 -4.062,-3.192 -8.569,-4.765 -13.119,-1.572 -3.403,2.388 -6.506,5.72 -7.21,9.945 -0.711,4.271 0.756,8.765 3.207,12.245 2.385,3.386 5.797,5.927 9.334,8.003 3.341,1.961 8.616,5.518 12.672,4.777 C -2.851,-1.724 -3.71,-2.463 -4.485,-3.296 -5.204,-4.07 -6.41,-5.1 -6.141,-6.25 c 0.066,-0.281 0.338,-0.449 0.61,-0.464 0.058,-0.003 0.115,-0.006 0.173,-0.01 0.213,-0.011 0.422,0.126 0.528,0.303 0.031,0.053 0.063,0.105 0.094,0.157 0.12,0.201 0.084,0.451 -0.053,0.632 0.363,0.777 1.54,1.733 2.015,2.189 0.896,0.86 1.881,1.592 2.93,2.252 C 0.618,-0.9 0.559,-0.144 0,0" style="fill-opacity: 1; fill-rule: nonzero; stroke: none; fill: rgb(255, 255, 255);" id="path146"/>
        </g>
        <g id="g148" transform="translate(387.74,178.9387)">
          <path d="m 0,0 c -1.943,4.777 -5.081,10.199 -10.811,10.272 -0.035,0.054 -0.069,0.108 -0.104,0.161 1.725,0.534 3.517,1.294 4.783,2.54 0.48,0.473 -0.126,1.161 -0.688,0.892 -1.794,-0.861 -3.366,-1.877 -5.315,-2.421 -0.369,-0.103 -0.654,-0.618 -0.392,-0.965 0.226,-0.299 0.438,-0.602 0.644,-0.908 0.003,-0.256 0.133,-0.503 0.391,-0.596 0.973,-1.551 1.732,-3.186 2.436,-4.921 0.196,-0.481 0.897,-0.31 0.79,0.218 -0.325,1.619 -0.933,3.151 -1.715,4.594 3.875,-0.513 6.224,-3.983 7.861,-7.374 1.744,-3.613 3.435,-8.201 1.613,-12.09 -2.304,-4.916 -8.631,-5.663 -12.595,-8.742 -4.045,-3.142 -4.272,-8.049 -2.125,-12.458 2.177,-4.469 6.86,-9.593 12.325,-8.743 0.392,0.061 0.24,0.594 -0.086,0.634 -4.254,0.52 -7.48,2.895 -9.822,6.445 -2.094,3.174 -3.747,7.618 -1.391,11.112 2.842,4.217 8.841,4.831 12.54,8.067 C 2.627,-10.531 1.959,-4.818 0,0" style="fill-opacity: 1; fill-rule: nonzero; stroke: none; fill: rgb(255, 255, 255);" id="path150"/>
        </g>
        <g id="g152" transform="translate(110.1908,212.7193)">
          <path d="m 0,0 c -1.033,5.766 -5.088,10.498 -7.128,15.907 0.092,0.318 0.187,0.636 0.286,0.953 0.829,-0.601 1.646,-1.218 2.428,-1.881 0.444,-0.376 1.878,-1.356 2.4,-2.067 L -2.03,12.885 c -0.132,-0.225 -0.096,-0.54 0.093,-0.723 0.298,-0.288 0.501,-0.342 0.909,-0.255 0.286,0.06 0.437,0.339 0.461,0.605 0.102,1.162 -1.435,2.115 -2.199,2.789 -1.296,1.144 -2.668,2.197 -4.093,3.174 -0.359,0.247 -0.84,-0.013 -0.956,-0.389 -0.934,-3.025 -1.622,-6.122 -1.789,-9.291 -0.025,-0.464 0.732,-0.577 0.82,-0.111 0.328,1.737 0.68,3.457 1.102,5.161 1.693,-4.268 4.659,-7.962 5.987,-12.397 0.85,-2.839 0.935,-5.961 -0.67,-8.561 -2.015,-3.262 -5.845,-3.907 -8.948,-1.793 -5.032,3.428 -5.135,9.987 -6.211,15.355 -0.641,3.196 -1.881,8.212 -5.8,8.814 -3.661,0.562 -6.852,-3.054 -8.23,-6.046 -2.071,-4.499 1.427,-8.251 2.401,-12.56 0.722,-3.194 0.636,-6.816 -1.595,-9.426 -2.466,-2.883 -6.255,-3.508 -9.218,-0.951 -3.692,3.185 -4.404,8.78 -8.473,11.616 -3.278,2.284 -6.053,-0.133 -7.267,-3.309 -1.727,-4.516 -1.239,-9.508 1.022,-13.712 -1.498,1.348 -3.01,2.686 -4.614,3.883 -0.386,0.288 -0.771,-0.304 -0.478,-0.63 -0.005,-0.003 -0.01,-0.005 -0.014,-0.008 2.055,-2.268 4.433,-4.292 6.664,-6.386 0.272,-0.255 0.851,-0.272 1.023,0.132 1.232,2.882 2.97,6.042 3.476,9.138 0.09,0.55 -0.62,0.928 -0.94,0.397 -1.465,-2.43 -2.295,-5.422 -3.351,-8.107 -0.317,0.282 -0.634,0.564 -0.95,0.849 0.181,0.09 0.307,0.304 0.184,0.54 -1.317,2.532 -2.075,5.311 -1.994,8.183 0.1,3.551 1.747,11.176 7.05,7.572 1.994,-1.355 3.123,-4.34 4.259,-6.379 1.015,-1.823 2.156,-3.612 3.786,-4.951 2.639,-2.169 6.06,-2.399 8.911,-0.471 3.397,2.298 4.595,6.367 4.151,10.293 -0.232,2.051 -0.872,4.035 -1.673,5.929 -0.556,1.316 -1.323,2.61 -1.644,4.012 -0.495,2.167 0.464,4.125 1.728,5.824 2.158,2.898 6.222,4.872 8.522,0.926 1.561,-2.678 1.91,-5.996 2.403,-8.999 0.72,-4.383 1.687,-8.761 5.165,-11.824 2.441,-2.15 5.825,-3.113 8.82,-1.489 C -0.437,-8.649 0.704,-3.932 0,0" style="fill-opacity: 1; fill-rule: nonzero; stroke: none; fill: rgb(255, 255, 255);" id="path154"/>
        </g>
        <g id="g156" transform="translate(171.5375,296.9266)">
          <path d="m 0,0 c -0.656,-1.076 -1.21,-2.252 -1.725,-3.452 1.441,6.191 -2.973,12.341 -9.02,14.164 -4.695,1.417 -10.546,1.379 -13.446,6.033 -2.442,3.922 -3.368,13.427 2.164,15.292 0.395,0.133 0.236,0.703 -0.172,0.623 -3.671,-0.727 -4.714,-4.954 -4.9,-8.186 -0.228,-3.986 0.902,-8.323 4.099,-10.937 3.702,-3.026 8.762,-2.86 13.062,-4.472 5.991,-2.246 8.178,-8.476 6.35,-14.304 -0.159,-0.508 0.451,-0.882 0.846,-0.686 -0.114,-0.284 -0.228,-0.567 -0.343,-0.847 -0.985,1.733 -1.772,3.544 -2.534,5.401 -0.213,0.519 -1.017,0.337 -0.866,-0.239 0.639,-2.43 1.738,-4.719 2.94,-6.914 0.217,-0.397 0.914,-0.447 1.117,0 1.182,2.61 2.694,5.322 3.499,8.073 C 1.259,0.194 0.343,0.562 0,0" style="fill-opacity: 1; fill-rule: nonzero; stroke: none; fill: rgb(255, 255, 255);" id="path158"/>
        </g>
        <g id="g160" transform="translate(100.0711,118.1951)">
          <path d="m 0,0 c -5.047,-6.531 -7.507,-16.478 -1.316,-23.129 5.68,-6.102 15.665,-7.905 23.254,-4.709 7.483,3.15 12.661,12.37 9.83,20.242 1.109,-1.246 2.207,-2.515 3.407,-3.662 0.354,-0.339 0.979,0.096 0.704,0.536 -0.209,0.334 -0.335,0.568 -0.61,0.813 -1.08,1.418 -2.267,2.766 -3.39,4.144 -0.269,0.33 -0.757,0.198 -0.988,-0.087 -0.201,0.047 -0.452,-0.123 -0.377,-0.365 0.013,-0.043 0.024,-0.086 0.037,-0.13 -0.527,-0.798 -1.068,-1.587 -1.641,-2.354 -0.667,-0.892 -1.497,-1.73 -2,-2.729 -0.209,-0.414 0.263,-1.036 0.709,-0.709 1.328,0.972 2.414,2.529 3.371,4.023 1.47,-7.503 -1.992,-15.277 -9.312,-18.478 -7.927,-3.466 -19.914,-0.966 -24.068,7.207 -4.029,7.928 1.458,19.739 9.048,23.51 4.544,2.257 10.56,0.993 11.897,-4.466 1.296,-5.286 -4.247,-9.262 -8.98,-7.049 C 8.92,-7.085 8.367,-8.01 9.012,-8.383 15.38,-12.072 22.155,-4.846 19.274,1.512 17.707,4.971 14.229,6.808 10.496,6.525 6.136,6.195 2.586,3.346 0,0" style="fill-opacity: 1; fill-rule: nonzero; stroke: none; fill: rgb(255, 255, 255);" id="path162"/>
        </g>
        <g id="g164" transform="translate(409.601,206.6189)">
          <path d="m 0,0 c -7.13,-2.75 -13.666,-6.619 -19.496,-11.551 -2.908,13.398 -8.176,27.779 -21.963,33.189 -0.771,0.303 -1.106,-0.886 -0.422,-1.254 -0.15,-0.062 -0.268,-0.197 -0.269,-0.413 -0.009,-3.484 0.017,-6.968 0.042,-10.452 -5.711,5.539 -11.421,11.078 -17.132,16.617 7.383,3.263 14.763,6.531 22.145,9.797 -1.138,-3.647 -2.592,-7.155 -4.375,-10.548 -0.315,-0.599 0.323,-1.205 0.913,-0.913 7.421,3.673 16.202,2.052 22.992,-2.278 C -9.434,17.01 -4.334,8.379 0,0 m -18.298,24.193 c -6.447,3.618 -14.23,4.871 -21.16,2.205 1.665,3.4 3.02,6.91 4.071,10.563 0.172,0.6 -0.482,0.972 -0.979,0.752 -8.126,-3.595 -16.253,-7.188 -24.378,-10.787 -0.4,-0.178 -0.43,-0.776 -0.142,-1.054 6.326,-6.127 12.653,-12.253 18.98,-18.379 0.396,-0.383 1.14,-0.118 1.121,0.464 -0.133,4.005 -0.256,8.01 -0.425,12.014 -0.002,0.052 -0.019,0.093 -0.033,0.137 13.223,-5.54 17.974,-20.118 20.68,-33.067 0.11,-0.53 0.762,-0.618 1.121,-0.304 6.077,5.32 12.98,9.445 20.549,12.262 0.413,0.155 0.624,0.566 0.412,0.979 -4.748,9.248 -10.465,18.966 -19.817,24.215" style="fill-opacity: 1; fill-rule: nonzero; stroke: none; fill: rgb(255, 255, 255);" id="path166"/>
        </g>
        <g id="g168" transform="translate(398.2395,294.1705)">
          <path d="m 0,0 c -10.989,-2.662 -21.488,-6.912 -31.241,-12.649 -0.455,0.193 -0.965,-0.4 -0.586,-0.833 0.052,-0.28 0.269,-0.531 0.549,-0.578 2.101,-2.191 4.208,-4.375 6.33,-6.545 -9.25,-1.46 -18.408,-3.454 -27.45,-5.893 3.126,8.717 6.488,17.344 10.092,25.874 1.883,-2.411 3.766,-4.822 5.649,-7.233 0.274,-0.351 0.857,-0.195 1.051,0.142 6.059,10.489 11.572,21.271 16.539,32.317 C -14.361,15.232 -9.07,5.659 0,0 m -19.676,26.48 c -4.973,-11.172 -10.514,-22.071 -16.6,-32.676 -1.911,2.448 -3.823,4.895 -5.735,7.343 -0.25,0.32 -0.893,0.228 -1.05,-0.143 -3.962,-9.324 -7.644,-18.76 -11.04,-28.305 -0.17,-0.479 0.36,-0.937 0.813,-0.813 9.833,2.7 19.789,4.807 29.854,6.431 0.506,0.081 0.623,0.772 0.298,1.097 -2.342,2.346 -4.706,4.667 -7.076,6.984 10.025,5.849 20.824,10.113 32.147,12.687 0.571,0.13 0.662,0.951 0.16,1.229 -10.158,5.623 -15.615,16.155 -20.61,26.166 -0.214,0.43 -0.956,0.461 -1.161,0" style="fill-opacity: 1; fill-rule: nonzero; stroke: none; fill: rgb(255, 255, 255);" id="path170"/>
        </g>
        <g id="g172" transform="translate(263.1168,150.2824)">
          <path d="m 0,0 c -1.212,-0.124 -2.364,-1.209 -3.322,-1.839 -1.355,-0.89 -2.709,-1.781 -4.063,-2.672 -2.556,-1.68 -5.112,-3.361 -7.667,-5.042 3.563,10.402 6.551,20.984 8.948,31.716 0.048,0.212 0.005,0.394 -0.086,0.539 0.144,0.113 0.291,0.223 0.435,0.336 0.345,0.273 -0.098,0.817 -0.463,0.601 -2.645,-1.563 -5.231,-3.233 -7.787,-4.941 4.135,8.789 8.283,17.569 12.636,26.253 C 5.185,37.652 11.255,29.945 16.81,21.861 13.82,22.211 10.967,22.994 8.192,24.24 7.754,24.437 6.999,24.221 7.082,23.604 8.487,13.095 9.894,2.586 11.299,-7.922 9.614,-6.35 7.903,-4.806 6.087,-3.386 4.564,-2.196 2.112,0.216 0,0 M 18.933,21.358 C 12.889,30.264 6.225,38.699 -1.05,46.633 c -0.283,0.309 -0.875,0.245 -1.067,-0.138 -4.905,-9.779 -9.779,-19.583 -14.335,-29.532 -0.276,-0.603 0.341,-1.479 1.013,-1.013 2.6,1.804 5.182,3.642 7.702,5.559 -2.542,-11.075 -5.703,-21.986 -9.475,-32.706 -0.217,-0.615 0.574,-1.207 1.111,-0.854 4.666,3.066 9.331,6.132 13.996,9.198 3.186,2.094 5.511,-0.285 8.038,-2.339 2.035,-1.654 3.943,-3.457 5.852,-5.252 0.595,-0.559 1.355,0.021 1.259,0.732 -1.445,10.714 -2.886,21.428 -4.329,32.143 3.079,-1.23 6.246,-1.952 9.585,-2.176 0.539,-0.036 0.936,0.656 0.633,1.103" style="fill-opacity: 1; fill-rule: nonzero; stroke: none; fill: rgb(255, 255, 255);" id="path174"/>
        </g>
        <g id="g176" transform="translate(369.6317,124.2821)">
          <path d="m 0,0 c 1.28,-6.183 -3.406,-10.839 -9.082,-12.12 -4.887,-1.103 -9.576,-0.353 -13.966,1.456 -0.991,8.256 3.06,17.579 12.365,18.117 C -5.807,7.734 -1.037,5.008 0,0 m -24.85,-5.83 c -0.133,-1.355 -0.134,-2.699 -0.016,-4.022 -6.061,2.944 -11.495,7.779 -16.018,12.322 -0.034,0.26 -0.067,0.521 -0.101,0.781 1.997,-0.19 3.994,-0.38 5.992,-0.57 1.214,-0.116 1.21,1.787 0,1.899 l -7.065,0.649 c -0.46,0.043 -1,-0.466 -0.938,-0.938 0.081,-0.609 0.162,-1.218 0.242,-1.828 -0.032,-0.123 -0.043,-0.255 -0.024,-0.39 0.374,-2.538 0.735,-5.078 1.097,-7.619 0.143,-1.005 1.915,-0.778 1.789,0.243 -0.205,1.661 -0.417,3.321 -0.631,4.98 4.612,-4.466 9.998,-8.897 15.939,-11.57 1.557,-8.404 7.91,-15.651 15.965,-18.739 11.66,-4.469 25.426,1.337 30.651,12.582 0.267,0.574 -0.547,1.078 -0.864,0.505 -4.515,-8.156 -13.58,-13.612 -22.999,-12.951 -9.324,0.654 -17.833,7.64 -20.535,16.543 -0.127,0.419 -0.235,0.847 -0.333,1.279 4.444,-1.676 9.172,-2.307 14.101,-1.201 5.28,1.184 9.922,4.868 10.548,10.502 C 2.497,1.553 -0.111,6.281 -4.708,8.211 -14.762,12.43 -23.888,3.96 -24.85,-5.83" style="fill-opacity: 1; fill-rule: nonzero; stroke: none; fill: rgb(255, 255, 255);" id="path178"/>
        </g>
        <g id="g180" transform="translate(244.9559,110.0619)">
          <path d="m 0,0 c -1.45,1.326 -2.911,2.755 -4.545,3.848 -0.826,0.553 -1.608,-0.632 -1.012,-1.312 0.865,-0.985 1.911,-1.804 2.897,-2.667 0.449,-0.392 0.887,-0.803 1.35,-1.179 0.785,-0.64 0.9,-0.365 0.085,-0.884 -0.226,-0.144 -0.458,-0.28 -0.69,-0.416 -0.03,0.214 -0.144,0.41 -0.374,0.523 -6.63,3.266 -14.466,1.629 -20.179,-2.746 -2.807,-2.15 -5.136,-4.878 -6.991,-7.88 -2.28,-3.689 -3.809,-7.827 -6.39,-11.332 -5.121,-6.955 -14.375,-8.778 -22.347,-6.268 -7.383,2.324 -12.419,8.854 -19.657,11.459 -0.57,0.205 -1.135,0.36 -1.698,0.492 -0.06,0.207 -0.188,0.395 -0.372,0.504 -2.17,1.29 -3.952,2.997 -5.81,4.679 -0.343,0.31 -0.995,-0.114 -0.681,-0.525 1.216,-1.592 2.667,-2.955 4.154,-4.282 -1.597,0.066 -3.156,-0.129 -4.666,-0.542 -2.719,0.577 -5.43,1.126 -8.079,1.994 -0.506,0.166 -0.858,-0.636 -0.367,-0.871 1.884,-0.903 3.877,-1.474 5.874,-2.041 -1.39,-0.61 -2.733,-1.376 -4.017,-2.259 -3.001,0.158 -6.489,0.689 -9.382,0.043 -0.459,-0.103 -0.418,-0.765 0,-0.889 2.221,-0.659 4.834,-0.662 7.306,-0.712 -1.354,-1.1 -2.632,-2.301 -3.822,-3.534 -0.419,-0.434 0.202,-1.027 0.652,-0.652 1.465,1.222 2.957,2.413 4.483,3.484 -0.104,-0.414 -0.209,-0.826 -0.323,-1.237 -0.188,-0.68 -0.349,-1.896 -0.74,-2.58 -0.216,-0.127 -0.37,-0.369 -0.367,-0.621 0.001,-0.048 0.001,-0.096 0.002,-0.144 0.005,-0.409 0.355,-0.806 0.785,-0.785 0.802,0.04 0.975,0.511 1.228,1.191 0.643,1.728 1.041,3.572 1.382,5.379 0.006,0.032 0.005,0.063 0.008,0.095 1.56,0.952 3.158,1.742 4.805,2.28 -0.57,-1.33 -1.074,-2.689 -1.807,-3.939 -0.3,-0.511 -1.22,-1.632 -0.773,-2.294 0.359,-0.533 1.173,-0.459 1.368,0.178 0.012,0.037 0.016,0.075 0.024,0.112 -0.004,-0.098 -0.013,-0.178 -0.027,-0.235 0.019,0.019 0.036,0.038 0.064,0.059 0.151,0.118 0.251,0.345 0.356,0.506 0.267,0.409 0.516,0.848 0.748,1.278 0.818,1.521 1.329,3.193 2.088,4.743 0.019,0.039 0.032,0.081 0.045,0.123 0.93,0.171 1.875,0.253 2.838,0.232 -1.042,-1.211 -1.886,-2.63 -2.121,-4.159 -0.118,-0.766 0.914,-1.362 1.346,-0.568 0.907,1.668 1.631,3.177 2.894,4.51 1.483,-0.268 3.008,-0.792 4.58,-1.631 6.205,-3.312 11.066,-8.717 18.001,-10.66 5.839,-1.635 12.469,-1.188 17.748,1.934 6.46,3.819 8.539,11.004 12.348,16.998 5.275,8.301 14.793,13.587 24.441,9.811 -0.037,-0.019 -0.074,-0.037 -0.111,-0.055 -0.807,-0.258 -1.822,-0.743 -2.011,-0.827 -1.276,-0.57 -2.539,-1.167 -3.818,-1.728 -0.914,-0.4 -0.263,-1.951 0.682,-1.619 1.824,0.641 3.604,1.428 5.34,2.278 1.211,0.592 3.609,1.357 4.335,2.596 C 1.735,-1.626 0.791,-0.723 0,0" style="fill-opacity: 1; fill-rule: nonzero; stroke: none; fill: rgb(255, 255, 255);" id="path182"/>
        </g>
      </g>
    </g>
    
  </g>
</svg>